<svg width="60" height="42" viewBox="0 0 60 42" fill="current" xmlns="http://www.w3.org/2000/svg">
<path d="M33.5427 21.3396H36.1904V18.7593H37.6994C37.77 18.7593 37.8343 18.7593 37.8986 18.7593V21.3396H40.5464V18.5444C40.9919 18.4581 41.384 18.3483 41.7166 18.2134C42.6326 17.8495 43.3416 17.3162 43.8404 16.6166C44.3408 15.9123 44.5918 15.1453 44.5918 14.3155C44.5918 13.6222 44.4271 12.9916 44.0961 12.4253C43.7714 11.8638 43.3275 11.4199 42.7628 11.1077C42.3738 10.8834 41.8107 10.6795 41.0781 10.4881C41.762 10.2591 42.3126 9.96422 42.7299 9.60815C43.1502 9.24894 43.4687 8.83797 43.682 8.37681C43.9094 7.91094 44.0224 7.42311 44.0224 6.90547C44.0224 6.1949 43.8138 5.53924 43.3949 4.94474C42.9714 4.34711 42.3785 3.89222 41.5973 3.57536C41.3024 3.45615 40.9417 3.3589 40.5464 3.28204V0.518188H37.8986V3.09851H36.192V0.518188H33.5427V3.09851H29.4973V5.26003H30.1106C30.5231 5.26003 30.8055 5.29767 30.9466 5.37453C31.091 5.44826 31.1976 5.55178 31.2588 5.68041C31.32 5.80276 31.3482 6.10236 31.3482 6.56509V15.2974C31.3482 15.7539 31.32 16.0456 31.2588 16.1774C31.1976 16.3076 31.091 16.408 30.9466 16.4833C30.8055 16.5523 30.5231 16.5852 30.1106 16.5852H29.4973V18.7483H33.5411V21.3396H33.5427ZM35.2242 5.62237H36.9402C37.9441 5.62237 38.6406 5.68668 39.0296 5.81217C39.4154 5.93452 39.7166 6.14314 39.9158 6.43333C40.126 6.72822 40.2217 7.08272 40.2217 7.49526C40.2217 7.88741 40.1166 8.2372 39.897 8.53994C39.679 8.84425 39.3574 9.07326 38.9292 9.21757C38.5025 9.37286 37.8374 9.44658 36.9355 9.44658H35.2195V5.62237H35.2242ZM35.2242 11.7493H37.2461C38.1386 11.7493 38.7943 11.8324 39.2319 11.994C39.6633 12.1587 39.9942 12.4018 40.206 12.7265C40.4256 13.0465 40.537 13.4355 40.537 13.9061C40.537 14.4519 40.3801 14.9178 40.0711 15.3115C39.7668 15.699 39.3919 15.9562 38.9558 16.0786C38.5229 16.2009 37.9692 16.2652 37.3026 16.2652H36.1591C35.7795 16.2652 35.5426 16.2401 35.4579 16.2009C35.3685 16.1633 35.3105 16.0895 35.2712 15.9829C35.243 15.8982 35.2273 15.6221 35.2242 15.1374V11.7493ZM60 13.7257C60 16.5429 57.7146 18.8267 54.899 18.8267C53.9531 18.8267 53.0825 18.5538 52.3233 18.1068L40.1386 30.2931C40.2186 30.6523 40.2703 31.0303 40.2703 31.4162C40.2703 34.2318 37.9849 36.5173 35.1661 36.5173C32.3505 36.5173 30.0667 34.2318 30.0667 31.4162C30.0667 30.9786 30.1388 30.5566 30.2408 30.1519L24.5625 25.1419C23.6417 26.0281 22.3947 26.585 21.0159 26.585C20.0873 26.585 19.2293 26.3183 18.4827 25.8838L9.86798 34.6099C10.0735 35.1636 10.2021 35.7533 10.2021 36.3792C10.2021 39.198 7.91822 41.4803 5.10104 41.4803C2.28386 41.4803 0 39.1995 0 36.3808C0 33.5636 2.28543 31.2782 5.10261 31.2782C6.14258 31.2782 7.1057 31.5935 7.91352 32.1268L16.3713 23.5607C16.0859 22.9254 15.9212 22.2212 15.9212 21.4823C15.9212 18.6652 18.2034 16.3813 21.0222 16.3813C23.8378 16.3813 26.1232 18.6652 26.1232 21.4823C26.1232 21.749 26.0872 22.0063 26.0464 22.2619L31.9584 27.4822C32.8399 26.7622 33.9489 26.312 35.1724 26.312C36.4336 26.312 37.5676 26.7889 38.4586 27.5402L50.2324 15.7696C49.9563 15.1468 49.8011 14.4551 49.8011 13.7273C49.8011 10.9085 52.0865 8.62308 54.9021 8.62308C57.7177 8.62151 60 10.9069 60 13.7257Z" fill="current" fill-opacity="0.84"/>
</svg>
