<svg width="34" height="34" viewBox="0 0 34 34" fill="current"
  xmlns="http://www.w3.org/2000/svg">
  <path d="M33.5715 31.5647L23.8164 21.8026C25.7395 19.4963 26.8962 16.5488 26.8962 13.3296C26.8962 5.98545 20.8689 0.0139313 13.4551 0.0139313C6.04119 0.0139313 0 5.99241 0 13.3366C0 20.6808 6.02726 26.6523 13.4411 26.6523C16.5906 26.6523 19.4893 25.5723 21.7887 23.7676L31.5786 33.5575C32.15 34.1289 33.0001 34.1289 33.5715 33.5575C34.1428 32.9862 34.1428 32.1361 33.5715 31.5647ZM2.85685 13.3366C2.85685 7.56716 7.60898 2.87775 13.4411 2.87775C19.2733 2.87775 24.0254 7.56716 24.0254 13.3366C24.0254 19.1061 19.2733 23.7955 13.4411 23.7955C7.60898 23.7955 2.85685 19.0991 2.85685 13.3366Z" fill="current"/>
</svg>
